<?xml version="1.0" encoding="utf-8"?>
<!-- Generator: Adobe Illustrator 26.5.1, SVG Export Plug-In . SVG Version: 6.00 Build 0)  -->
<svg version="1.1" id="Layer_1" xmlns="http://www.w3.org/2000/svg" xmlns:xlink="http://www.w3.org/1999/xlink" x="0px" y="0px"
	 viewBox="0 0 720 576" style="enable-background:new 0 0 720 576;" xml:space="preserve">
<g  style="fill: #000">
	<path d="M251.65,111.81l9.94-5.72L241.2,70.64l-9.94,5.72l2.26,3.94L251.65,111.81z M491.58,76.81l-9.92-5.75l-2.28,3.92
		l-18.24,31.45l9.92,5.75L491.58,76.81z M580.99,170.58l-5.75-9.92l-3.93,2.27l-31.48,18.19l5.73,9.93L580.99,170.58z
		 M577.12,408.79l-31.49-18.18l-5.73,9.93l35.42,20.45l5.73-9.93L577.12,408.79z M471.11,469.46l-9.91,5.76l20.53,35.37l9.92-5.76
		l-2.28-3.93L471.11,469.46z M231.33,505.43l9.94,5.71l2.26-3.94l18.11-31.53l-9.94-5.71L231.33,505.43z M141.54,412.02l5.78,9.91
		l3.92-2.29l31.4-18.32l-5.78-9.9L141.54,412.02z M175.99,191.86l5.69-9.96l-35.5-20.3l-5.7,9.95l3.94,2.26L175.99,191.86z"/>
	<path d="M580.49,281.95h-4.97c0.9-4.02,2.63-7.11,5.18-9.26c2.56-2.17,5.59-3.26,9.09-3.26c2.54,0,4.9,0.58,7.11,1.74
		c2.19,1.16,3.89,2.71,5.1,4.69c1.21,1.96,1.81,4.01,1.81,6.16c0,4.2-2.1,7.52-6.26,9.98c2.35,0.95,4.27,2.34,5.76,4.17
		c2.14,2.58,3.19,5.47,3.19,8.68c0,2.75-0.72,5.39-2.18,7.9c-1.46,2.5-3.45,4.44-5.97,5.81c-2.52,1.37-5.33,2.06-8.44,2.06
		c-4.2,0-7.69-1.21-10.5-3.63c-2.81-2.41-4.65-5.97-5.5-10.64h4.76c0.84,3.15,2.05,5.44,3.62,6.85c2.01,1.8,4.57,2.69,7.68,2.69
		c3.55,0,6.38-1.05,8.51-3.18c2.15-2.12,3.23-4.6,3.23-7.44c0-1.9-0.55-3.68-1.61-5.34c-1.07-1.66-2.5-2.9-4.31-3.74
		c-1.8-0.84-4.59-1.37-8.36-1.56v-4.47c2.23,0,4.26-0.39,6.1-1.17c1.82-0.8,3.16-1.79,3.99-3c0.83-1.22,1.24-2.54,1.24-3.98
		c0-2.12-0.85-3.95-2.53-5.5c-1.68-1.53-3.83-2.31-6.41-2.31c-2.09,0-3.92,0.59-5.44,1.78
		C582.85,277.13,581.54,279.13,580.49,281.95z M366.52,490.06l4,2.61l-13.16,19.95c1.76-0.6,3.42-0.89,4.96-0.89
		c3.87,0,7.17,1.39,9.86,4.19c2.69,2.79,4.05,6.23,4.05,10.32c0,2.81-0.65,5.35-1.95,7.61c-1.31,2.26-3.17,4.06-5.57,5.4
		c-2.4,1.34-4.97,2.01-7.74,2.01c-2.68,0-5.16-0.65-7.44-1.94c-2.3-1.3-4.1-3.11-5.4-5.46c-1.3-2.34-1.95-4.86-1.95-7.52
		c0-1.99,0.39-4.08,1.21-6.28c0.8-2.19,2.24-4.84,4.33-7.93L366.52,490.06z M361.17,516.01c-2.84,0-5.25,0.99-7.26,2.99
		c-2.01,2.01-3,4.42-3,7.27c0,2.82,0.99,5.24,3,7.25c2.01,1.99,4.41,3,7.26,3c2.83,0,5.25-1.01,7.24-3
		c2.01-2.01,3.01-4.43,3.01-7.25c0-2.85-1-5.26-3.01-7.27C366.42,516.99,363.99,516.01,361.17,516.01z M124.62,320.62l-4.01-2.59
		l13.19-19.95c-1.76,0.58-3.43,0.88-4.98,0.88c-3.87,0-7.15-1.39-9.86-4.19c-2.69-2.8-4.04-6.23-4.04-10.33
		c0-2.8,0.66-5.33,1.95-7.58c1.32-2.26,3.16-4.06,5.56-5.4c2.4-1.35,4.96-2.02,7.7-2.02c2.69,0,5.2,0.66,7.47,1.95
		c2.28,1.31,4.08,3.13,5.38,5.47c1.3,2.33,1.96,4.84,1.96,7.49c0,2.01-0.41,4.11-1.21,6.31c-0.8,2.21-2.25,4.84-4.32,7.94
		L124.62,320.62z M129.95,294.68c2.85,0,5.28-1,7.26-2.99c1.98-2.01,2.99-4.42,2.99-7.25c0-2.82-1.01-5.24-3.01-7.23
		c-1.99-1.99-4.42-2.99-7.27-2.99c-2.83,0-5.24,1.01-7.24,2.99c-2.01,1.99-2.99,4.41-2.99,7.23c0,2.83,0.99,5.24,3,7.25
		C124.7,293.68,127.11,294.68,129.95,294.68z M332.44,38.49h9.58v48.73h-4.83V43.25h-7.65L332.44,38.49z M365.61,53.72h-4.68
		c0.14-4.8,1.74-8.75,4.82-11.84c3.08-3.08,6.88-4.63,11.41-4.63c4.49,0,8.11,1.46,10.88,4.35c2.77,2.89,4.16,6.31,4.16,10.25
		c0,2.77-0.66,5.35-1.98,7.76c-1.33,2.42-3.89,5.7-7.69,9.83L370.4,82.52h22.48v4.7h-33.09l18.62-20.13
		c3.78-4.05,6.23-7.05,7.38-9.01c1.13-1.95,1.7-4.01,1.7-6.18c0-2.74-1.02-5.1-3.07-7.08c-2.04-1.97-4.54-2.97-7.5-2.97
		c-3.13,0-5.71,1.04-7.77,3.12C367.06,47.06,365.89,49.97,365.61,53.72z"/>
</g>
</svg>
