<?xml version="1.0" standalone="no"?>
<!DOCTYPE svg PUBLIC "-//W3C//DTD SVG 20010904//EN"
 "http://www.w3.org/TR/2001/REC-SVG-20010904/DTD/svg10.dtd">
<svg version="1.0" xmlns="http://www.w3.org/2000/svg"
 width="512.000000pt" height="512.000000pt" viewBox="0 0 512.000000 512.000000"
 preserveAspectRatio="xMidYMid meet">
<metadata>
Created by potrace 1.14, written by Peter Selinger 2001-2017
</metadata>
<g transform="translate(0.000000,512.000000) scale(0.100000,-0.100000)"
fill="#000000" stroke="none">
<path d="M3080 4538 c-39 -26 -60 -62 -62 -105 -2 -27 9 -172 17 -243 2 -19 7
-66 10 -105 14 -179 25 -213 78 -245 61 -37 138 -21 182 38 23 31 27 95 15
207 -4 39 -11 104 -14 145 -3 41 -8 104 -11 140 -11 128 -48 179 -134 188 -37
3 -53 -1 -81 -20z"/>
<path d="M4325 4154 c-16 -8 -47 -37 -68 -64 -21 -26 -46 -56 -56 -67 -69 -76
-235 -282 -243 -302 -12 -33 -5 -94 15 -124 23 -35 82 -60 128 -54 47 6 78 31
152 122 55 68 100 122 163 194 80 92 104 132 104 172 0 105 -104 170 -195 123z"/>
<path d="M1938 3945 c-44 -24 -71 -79 -65 -131 6 -55 17 -68 167 -192 63 -53
117 -99 120 -102 21 -23 121 -100 147 -114 94 -48 204 30 190 135 -7 51 -23
70 -150 174 -60 50 -115 95 -122 102 -22 21 -130 109 -155 126 -30 21 -95 21
-132 2z"/>
<path d="M3165 3495 c-289 -54 -526 -259 -611 -527 -10 -32 -20 -58 -24 -58
-3 0 -16 13 -28 29 -26 36 -150 137 -217 177 -66 40 -183 87 -270 110 -76 19
-277 25 -374 11 -121 -17 -286 -88 -401 -172 -131 -97 -230 -217 -300 -368
-56 -120 -77 -205 -87 -347 -3 -47 -6 -86 -7 -86 0 -1 -31 -5 -68 -8 -94 -10
-114 -14 -188 -38 -239 -77 -435 -261 -528 -494 -17 -44 -34 -90 -36 -104 -3
-14 -9 -47 -15 -75 -12 -61 -7 -269 8 -307 6 -16 9 -28 6 -28 -2 0 7 -30 19
-68 93 -272 299 -467 586 -554 l75 -23 1457 -3 c1606 -3 1521 -6 1651 59 143
72 240 179 302 334 37 92 46 255 20 354 -57 222 -238 397 -458 446 l-74 16 -1
57 c-1 31 -5 80 -8 108 l-6 52 35 11 c53 18 153 85 220 149 120 115 207 274
236 432 15 83 7 263 -16 345 -78 281 -321 512 -595 566 -84 16 -227 18 -303 4z"/>
<path d="M4888 3015 c-2 -2 -48 -6 -103 -10 -55 -4 -111 -9 -125 -10 -14 -2
-61 -6 -105 -10 -94 -8 -135 -29 -160 -81 -20 -43 -14 -107 15 -142 29 -35 84
-53 143 -48 29 3 88 8 132 11 44 4 98 8 120 11 22 2 76 6 120 10 123 9 178 45
191 125 8 48 -18 103 -62 129 -26 17 -47 21 -98 19 -36 -1 -67 -3 -68 -4z"/>
<path d="M4163 2070 c-56 -34 -80 -113 -52 -174 15 -32 395 -351 440 -370 57
-23 125 1 160 57 25 39 21 113 -7 149 -21 27 -298 262 -376 321 -60 43 -113
49 -165 17z"/>
</g>
</svg>
